<?xml version="1.0" encoding="utf-8"?>
<!-- Generator: Adobe Illustrator 25.2.0, SVG Export Plug-In . SVG Version: 6.00 Build 0)  -->
<svg version="1.1" xmlns="http://www.w3.org/2000/svg" xmlns:xlink="http://www.w3.org/1999/xlink" x="0px" y="0px"
	 viewBox="0 0 191.89 192.59" style="enable-background:new 0 0 191.89 192.59;" xml:space="preserve">
<style type="text/css">
	.st0{fill-rule:evenodd;clip-rule:evenodd;fill:url(#SVGID_1_);}
	.st1{fill-rule:evenodd;clip-rule:evenodd;fill:url(#SVGID_2_);}
	.st2{fill-rule:evenodd;clip-rule:evenodd;fill:url(#SVGID_3_);}
</style>
<g id="Layer_3">
</g>
<g id="Layer_1">
	<g>
		<linearGradient id="SVGID_1_" gradientUnits="userSpaceOnUse" x1="71.6134" y1="67.272" x2="191.8919" y2="67.272">
			<stop  offset="0" style="stop-color:#333333"/>
			<stop  offset="0.4858" style="stop-color:#DADADA"/>
			<stop  offset="1" style="stop-color:#333333"/>
		</linearGradient>
		<path class="st0" d="M191.89,130.18c-34.03-8.14-87.34-11.98-118.48,4.37l-1.8-116.45c0.56-28.82,100.95-17.18,120.28-6.15
			C191.89,55.67,191.89,86.44,191.89,130.18L191.89,130.18z"/>
		<linearGradient id="SVGID_2_" gradientUnits="userSpaceOnUse" x1="71.6134" y1="90.5772" x2="137.942" y2="90.5772">
			<stop  offset="0" style="stop-color:#F2F2F2"/>
			<stop  offset="1" style="stop-color:#333333"/>
		</linearGradient>
		<path class="st1" d="M71.61,18.09c0.3,19.15,66.29,2.46,66.33,32.66v112.31l-64.53-28.52C72.81,95.73,72.21,56.91,71.61,18.09
			L71.61,18.09z"/>
		<linearGradient id="SVGID_3_" gradientUnits="userSpaceOnUse" x1="0" y1="118.5289" x2="137.942" y2="118.5289">
			<stop  offset="0" style="stop-color:#174082"/>
			<stop  offset="0.5142" style="stop-color:#009FE3"/>
			<stop  offset="1" style="stop-color:#174082"/>
		</linearGradient>
		<path class="st2" d="M0,44.47c40.94,23.65,113.6,33.27,137.94,6.29c0,38.11,0,74.2,0,112.31C112.4,209.85,19.14,191.75,0,171.9
			v-31.03c15.47,11.46,30.3,16.43,49.97,16.96c0-3.17,0-6.34,0-9.5C32.9,148.95,16.25,143.14,0,131.37v-6.28
			c15.47,11.46,30.3,16.43,49.97,16.96c0-3.17,0-6.34,0-9.5C32.9,133.16,16.25,127.36,0,115.59v-6.28
			c15.47,11.46,30.3,16.43,49.97,16.96c0-3.17,0-6.34,0-9.5C32.9,117.37,16.25,111.57,0,99.8v-6.28
			c15.47,11.46,30.3,16.43,49.97,16.96c0-3.17,0-6.34,0-9.5C32.9,101.59,16.25,95.78,0,84.01V44.47L0,44.47z"/>
	</g>
</g>
</svg>
