<?xml version="1.0" encoding="utf-8"?>
<!-- Generator: Adobe Illustrator 26.2.1, SVG Export Plug-In . SVG Version: 6.00 Build 0)  -->
<svg version="1.1" id="Camada_1" xmlns="http://www.w3.org/2000/svg" xmlns:xlink="http://www.w3.org/1999/xlink" x="0px" y="0px"
	 viewBox="0 0 1125 1117" style="enable-background:new 0 0 1125 1117;" xml:space="preserve">
<style type="text/css">
	.st0{fill:#C5C3F6;}
	.st1{fill:#FECDCE;}
	.st2{fill:#63505C;}
	.st3{fill:#62505D;}
	.st4{fill:#FDCDCE;}
	.st5{fill:#C94E3D;stroke:#C94E3D;stroke-width:0.25;stroke-miterlimit:10;}
	.st6{fill:#E5E4FE;}
	.st7{fill:#A796F9;}
	.st8{fill:#C84E3D;stroke:#C84E3D;stroke-width:0.25;stroke-miterlimit:10;}
	.st9{fill:#8378D6;}
	.st10{fill:#C94E3D;}
	.st11{fill:#D9D8FC;}
	.st12{fill:#9A98DE;stroke:#9A98DE;stroke-width:0.25;stroke-miterlimit:10;}
	.st13{fill:#FCBD3F;stroke:#FCBD3F;stroke-width:0.25;stroke-miterlimit:10;}
	.st14{fill:#605AB3;}
	.st15{fill:#FCBD3F;}
	.st16{fill:#FEFEFE;}
</style>
<g>
	<path class="st0" d="M578.32,777.69c0.3-3.59,3.54-3.61,5.8-4.48c14.91-5.78,27.02-15.14,35.88-28.41
		c2.52-3.77,13.1-17.61,19.03-19.05c16.87-4.1,29.12-15.07,41.35-26.53c6.97-6.53,11.19-15.3,18.74-21.19
		c6.97-13.29,15.73-25.59,21.93-39.31c1.3-2.87,3.36-5.53,3.28-8.83c-0.33-14.73,2.78-28.82,7.67-42.6
		c-28.61-24.61-55.21-51.31-78.83-80.67c-22.46-27.92-50.99-43.72-85.95-48.96c0.55,3.58-2.34,5.16-4.32,7.13
		c-22.72,22.55-65.16,26.44-94.14,8.54c-5.7-3.52-12.27-6.38-14.27-13.82c-5.05-0.22-10.26,0.3-15.12-0.78
		c-27.29-6.1-54.37-12.97-79.74-25.18c-11.26-1.99-20.11-8.93-29.59-14.52c-10.44-6.15-20.62-12.74-30.92-19.14
		c-0.6,2.58-1.35,5.14-1.79,7.75c-4.96,29.77-5.03,59.9-6.57,89.92c0.52,0.87,1.63,1.85,1.48,2.59
		c-3.15,15.55,0.62,31.54-3.07,47.04c0.67,14.11,4.11,27.6,9.63,40.52c9.85,23.03,24.56,42.63,43.2,59.25
		c15.03,13.41,32.46,22.56,52.24,26.27c6.8,1.28,7.57,3.8,6.37,9.56c-3.43,16.48-9.25,32.33-12.81,48.73
		c-1.37,6.33-4.61,14.32,2.78,19.57c3.59,2.55,8.13,3.75,12.24,5.56c2.29-4.15,4.4-8.28,8.27-11.45
		c13.81-11.32,38.49-9.33,46.11,16.22c0.96-0.87,2.09-1.62,2.86-2.64c9.58-12.55,17.5-25.82,18.07-42.24c0.07-1.91,0.62-4,2.93-4.02
		c2.84-0.03,3.21,2.36,3.17,4.54c-0.03,1.56-0.57,3.09-0.74,4.66c-1.65,14.42-9.32,26.2-16.72,38.1l0.03,0.03
		c2.06,0.12,3.44-1.09,4.85-2.35c23.37-20.92,41.56-45.74,55.45-73.78c1.25-2.53,1.74-6.78,5.52-4.73c3.1,1.68,0.05,4.75-0.94,6.95
		c-13.8,30.44-34.52,55.69-58.92,78.12c-4.22,3.88-9.59,5.5-15.42,5.18c-0.59,2.48-1.19,4.97-1.78,7.45
		C496.42,786.63,537.31,790.23,578.32,777.69z"/>
	<path class="st1" d="M402.85,756.66c-4.11-1.81-8.66-3.01-12.24-5.56c-7.38-5.25-4.15-13.24-2.78-19.57
		c3.55-16.4,9.38-32.25,12.81-48.73c1.2-5.76,0.43-8.28-6.37-9.56c-19.78-3.71-37.21-12.86-52.24-26.27
		c-18.63-16.63-33.34-36.22-43.2-59.25c-5.53-12.92-8.96-26.41-9.63-40.52c-32.64,31.95-70.42,57.6-105.7,86.29
		c-21.58,17.55-41.87,36.79-56.51,61.02c-12.59,20.85-21.43,42.74-23.31,67.5c-3.6,47.4,11.55,88.41,40.33,125.13
		c20.11,25.66,45.67,43.08,77.65,50.79c26.2,6.32,51.8,3.51,77.4-3.52c9.17-2.52,17.61-7.39,27.26-8.25
		c3.67-6.13,7.19-12.36,11.03-18.39c18.92-29.69,44.97-53.85,64.59-83.01c3.46-5.14,2.06,1.97,3.7,1.73
		c1.6-4.89-1.6-9.33-1.25-14.16c0.34-4.78-2.56-5.52-6.18-3.54c-12.13,6.63-25.17,10.06-38.66,12.9
		c-15.66,3.29-31.27,1.74-46.9,1.74c-3.9,0-7.81-2.29-13.17-3.99c4.74-3.27,7.66-6.32,11.22-7.59
		c29.86-10.65,56.81-28.42,87.96-35.82c2.22-0.53,4.96-1.12,3.92-3.71C400.38,766.89,403.02,761.85,402.85,756.66z"/>
	<path class="st2" d="M642.69,278.54c2.95-10.58,1.26-13.92-8.77-17.37c-4.73-1.62-6.56-7.92-2.98-11.41
		c3.91-3.82,5.1-8.06,3.06-12.98c-1.97-4.76-5.99-6.17-10.96-6.29c-5.86-0.14-8.93-5.48-6.17-10.61c2.35-4.37,2.85-8.52-0.07-12.72
		c-3.05-4.38-7.46-4.59-12.15-3.8c-5.92,1-10.38-3.38-8.85-9c1.31-4.82,0.78-9.05-3.17-12.25c-4.2-3.41-8.62-3.13-13.33-0.5
		c-4.38,2.45-10.26-1.06-10.06-6.1c0.2-5-0.84-9.48-5.41-11.45c-4.77-2.05-9.59-1.63-13.86,2.67c-3.36,3.39-10.33,0.64-11.09-4.2
		c-0.87-5.47-3.89-8.83-9-9.86c-4.87-0.98-8.6,1.22-11.31,5.57c-3.07,4.93-10.29,4.87-11.91-0.55c-2.35-7.89-9.01-5.41-13.63-6.44
		c-4.24-0.94-6.13,3.65-7.43,7.73c-1.41,4.42-9.22,5.53-11.9,1.66c-3.18-4.6-7.29-6.26-12.34-4.88c-5.19,1.42-7.41,5.23-7.63,10.78
		c-0.2,4.81-7.21,7.81-11.03,4.76c-4.21-3.36-8.46-4.59-13.14-1.77c-4.54,2.73-6.15,6.74-4.93,12.23c0.99,4.42-5.35,9.33-9.37,7.36
		c-4.83-2.37-9.21-2.62-13.23,1.16c-3.95,3.72-4.3,8.07-2.21,13.08c1.92,4.6-2.11,9.59-7.32,9.58
		c-13.78-0.04-17.28,6.06-10.49,18.24c1.8,3.23-1.82,10.26-5.77,10.28c-5.87,0.03-9.86,2.37-11.37,7.95
		c-1.31,4.83,0.62,8.63,4.66,11.75c3.7,2.86,2.5,10.52-1.95,11.71c-5.64,1.51-9,4.67-9.37,10.35c-0.38,5.74,2.78,9.22,8.07,11.42
		c4.03,1.68,4.38,9.09,0.47,11.26c-4.98,2.77-7.97,6.42-6.9,12.13c1.06,5.65,4.92,8.13,10.69,8.88c3.95,0.52,5.78,8.41,2.66,11.12
		c-4.26,3.71-4.97,8.27-3.41,13c1.75,5.28,6.2,6.51,11.56,6.29c4.67-0.19,8.25,6.31,6.22,10.47c-4.13,8.47-3.42,11.29,4.39,17.4
		c1.58,0.11,3.2,0.48,4.75,0.28c10.13-1.28,12.06,0.6,10.79,10.75c-0.5,3.98,0.57,7.4,3.8,9.89c3.73,2.88,7.79,2.94,12,1.12
		c6.83-2.95,11.04-0.32,11.27,7.28c0.15,4.76,2.19,8.14,6.41,10.12c4.32,2.03,8.19,0.93,11.79-2.02c5.43-4.46,10.67-2.87,12.39,3.76
		c1.53,5.89,5,9.17,11.27,9.07c1.02-1.17,2.49-2.18,2.99-3.55c5.78-15.99,10.47-31.98-3.08-46.71
		c-17.92,6.81-31.58-10.24-24.87-25.02c-6.88-5.6-9.6-14.02-6.44-21.83c3.04-7.49,8.89-10.78,17.08-10.48
		c2.69,0.1,7.59,2.31,7.7-2.69c0.21-9.85,4.7-4.76,7.82-2.48c20.26,14.84,56.55,10.95,73.34-7.12c4.87-5.24,7.98-11.7,14.86-16.57
		c0,15.8,0,31.6,0,47.41c7.7-1.74,14.85-1.07,20.38,5.26c5.78,6.62,6.03,15.68,0.86,22.68c-5.38,7.29-13.65,8.91-24.18,4.74
		c-7.02,12.12-15.27,22.97-28.99,28.19c-3.1,1.18-2.84,3.06-1.6,5.66c3.2,6.73,6.71,13.26,11.41,19.08c3.5-1.81,5.77-4.44,6.48-8.51
		c1.37-7.84,5.8-9.71,12.68-5.54c3.99,2.42,8.05,2.59,12.06,0.14c3.78-2.31,5.21-5.86,4.96-10.19c-0.44-7.69,3.24-10.64,10.54-8.32
		c4.42,1.4,8.47,1.03,11.85-2.3c3.37-3.32,3.91-7.25,2.39-11.76c-2.24-6.64,1.22-11.01,8.06-10.25c4.66,0.52,8.52-0.69,11.09-4.63
		c2.55-3.91,2.31-8,0.01-12.06c-3.8-6.73-1.72-11.44,5.63-12.35c4.8-0.59,7.93-2.98,9.37-7.44c1.46-4.51,0.05-8.3-3.36-11.54
		c-5.02-4.77-4.12-10.4,2.21-12.74c4.82-1.79,7.64-4.98,7.88-9.95c0.24-4.99-2.39-8.35-6.93-10.64c-5.17-2.61-5.28-8.85-0.52-12.19
		C639.67,280.68,641.18,279.61,642.69,278.54z"/>
	<path class="st3" d="M405.63,826.49c-1.64,0.24-0.23-6.88-3.7-1.73c-19.63,29.16-45.67,53.32-64.59,83.01
		c-3.84,6.02-7.36,12.25-11.03,18.39c-6.41,16.71-13.6,33.15-16.93,50.91c-2.49,13.27-4.87,26.53-3.92,40.12
		c3.24,2.61,7.08,1.71,10.71,1.71c99.79,0.04,199.58,0.04,299.38,0.05c-3.44-17.68-6.9-35.35-10.31-53.03
		c-8.04-41.72-14.94-83.62-20.14-125.79c-0.55-4.48-1.26-8.94-1.89-13.41c-47.62,0.03-95.25,0.06-142.87,0.08
		c1.15,17.11,3.23,34.07,8.76,51.72C424.92,868.11,410.6,851.22,405.63,826.49z"/>
	<path class="st1" d="M699.13,678.03c-7.55,5.89-11.77,14.65-18.74,21.19C668.16,710.68,657.87,719.9,641,724
		c-5.93,1.44-16,11-19,18c35.02-11.09,78.29-24.47,114.18-32.25c32.24-6.99,64.99-11.61,96.87-20.29
		c52.44-14.29,85.96-47.66,100.74-99.98c12.75-45.13,6.19-88.36-11.46-130.94c-17.12-41.28-43.56-75.65-76.47-105.18
		c-11.75-10.54-25.29-19.09-38.01-28.56c-0.44,0.62-0.87,1.25-1.3,1.87c2.97,6.25,5.93,12.49,8.89,18.74
		c10.58-3.89,11.04-3.71,16.41,6.73c3.29,6.39,6.28,12.94,9.88,19.15c3.06,5.28,2.97,9.47-2.4,12.95
		c3.82,6.06,7.63,12.12,11.48,18.16c2.66,4.17,4.39,8.49,2.71,13.52c0.22,1.3,1.76,2.15,2.47,3.07c5.17,6.8-0.84,10.21-6.51,12.89
		c-5.24,2.47-10.15,5.65-15.2,8.51c-10.27,22.44-12.05,46.78-16.29,70.6c0.22,3.1,2.03,6.48-1.14,9.14
		c-7.25,45.06-14.25,90.16-21.85,135.16c-4.05,23.94-22.66,36.12-46.55,31.67C732.03,683.9,715.57,681,699.13,678.03z"/>
	<path class="st4" d="M642.69,278.54c-1.51,1.07-3.02,2.14-4.54,3.21c-4.77,3.35-4.66,9.58,0.52,12.19
		c4.54,2.29,7.17,5.66,6.93,10.64c-0.24,4.97-3.06,8.16-7.88,9.95c-6.33,2.35-7.22,7.98-2.21,12.74c3.41,3.24,4.82,7.03,3.36,11.54
		c-1.45,4.46-4.58,6.85-9.37,7.44c-7.35,0.91-9.43,5.62-5.63,12.35c2.3,4.07,2.54,8.15-0.01,12.06c-2.58,3.94-6.44,5.15-11.09,4.63
		c-6.84-0.76-10.3,3.61-8.06,10.25c1.52,4.5,0.97,8.44-2.39,11.76c-3.38,3.33-7.42,3.7-11.85,2.3c-7.3-2.32-10.98,0.63-10.54,8.32
		c0.25,4.33-1.17,7.88-4.96,10.19c-4.01,2.45-8.06,2.27-12.06-0.14c-6.88-4.16-11.31-2.3-12.68,5.54c-0.71,4.07-2.98,6.7-6.48,8.51
		c6.07,10.16,11.33,21.06,23.49,25.64c34.96,5.24,63.5,21.05,85.95,48.97c23.62,29.36,50.22,56.06,78.83,80.66
		c15.09-37.29,30.17-74.58,45.26-111.87c-0.48-2.53,3.35-1.93,2.73-4.42c-0.53-2.12-6.89-7.45-3.88-9.28
		c3.12-1.89,3.81,1.53,5.52,2.7c5.62-9.16,5.78-17.86-0.84-26.95c-4.01-5.51-6.84-11.93-9.77-18.14
		c-5.7-12.06-5.61-23.49,4.33-33.68c1.61-1.65,2.61-3.9,3.89-5.88c-5.61-10.77-11.23-21.55-16.84-32.32
		c-1.38,0.05-2.77,0.09-4.15,0.14c-13.26,8.09-26.74,8.08-40.41,1.11c-5.02-0.7-8.72-3.86-12.54-6.79
		c-4.87,2.09-9.95,3.82-14.57,6.37c-6.25,3.44-9.89,1.27-12.73-4.48c-3.65-7.38-7.57-14.62-11.22-21.99
		c-10.07-20.3-12.71-18.05,9.44-28.53c5.19-2.46,8.16-5.63,8.12-11.39C670.55,279.63,656.6,279.34,642.69,278.54z"/>
	<path class="st5" d="M290.79,497.56c1.53-30.02,1.61-60.15,6.57-89.92c0.43-2.61,1.18-5.16,1.79-7.75
		c0.37-3.54-2.39-5.03-4.49-7.01c-22.28-21-44.43-42.14-66.9-62.94c-4.12-3.82-4.59-6.37-1.52-11.24
		c25.65-40.7,51.05-81.56,76.34-122.48c2.93-4.74,6.34-6.92,12.01-7.45c10.03-0.93,20.08-2.42,29.89-4.65
		c14.18-3.22,20.9-12.18,21.55-26.8c0.38-8.57-0.63-17.04-2.17-25.4c-2.15-11.75-4.84-12.88-15.39-7.39
		c-2.36,8.85-1.77,17.89-1.7,26.89c0.04,4.58-0.77,6.28-5.97,4.15c-8.34-3.43-24.05,2.13-29.26,9.34c-1.27,1.76-1.48,6.49-5.17,3.78
		c-2.58-1.89-0.23-5,1.11-7.13c1.08-1.73,2.83-3.1,4.46-4.41c6.47-5.15,14.23-7.24,22.18-7.72c5.17-0.31,6.21-2.09,7.03-6.96
		c1.38-8.23-0.33-17.2,4.99-24.64c-3.7-7.21-10.02-8.94-17.45-8.39c-5.84,0.44-11.68,1.32-17.51,1.23
		c-10.27-0.16-17.02,4.79-21.9,13.31c-6.78,11.83-11.39,24.58-15.47,37.48c-1.84,5.83-4.79,10.36-9.01,14.6
		c-42.27,42.48-84.45,85.04-126.62,127.62c-18.33,18.51-17.64,40.79,1.49,58.65c9.13,8.53,17.92,17.41,26.87,26.13
		c11.3,10.43,22.71,20.74,33.89,31.3c20.63,19.48,41.13,39.11,61.68,58.67c5.54,4.72,10.92,9.66,16.69,14.08
		C282.25,495.19,285.98,497.84,290.79,497.56z"/>
	<path class="st6" d="M765.78,237.51c-1.64-3.21-3.01-6.82-6.46-8.79c7.77-4.07,100.42-68.54,100.42-68.54s29.15,56.7,43.75,85.03
		c5.83,11.32,11.9,22.52,17.55,33.92c2.23,4.49,10.39,5.73,13.96,8.86c-1.26,1.94-9.9,4.82-9.9,4.82l-117.42,27.42
		C807.68,320.24,779.83,265.04,765.78,237.51z M808.18,260.45c9.61-4.37,19.11-9,28.64-13.54c2.29-1.09,2.99-3.01,2.18-5.27
		c-0.82-2.3-2.81-3.56-5.03-2.44c-9.66,4.87-20,8.35-29.14,14.26c-1.42,0.92-2.27,2.18-2.32,4.18
		C802.9,261.13,805.44,261.69,808.18,260.45z M816.29,280.11c11.12-3.5,21.28-9.19,31.42-14.82c1.78-0.99,1.64-3.25,0.72-5.03
		c-0.97-1.88-2.82-2.79-4.67-1.89c-10.01,4.83-19.96,9.79-29.85,14.87c-0.96,0.49-1.35,2.1-1.73,2.75
		C812.2,279.36,814.04,280.82,816.29,280.11z M817.24,225.7c-6.95,3.33-13.91,6.66-20.89,9.94c-2.14,1.01-3.69,2.46-2.94,4.93
		c0.87,2.85,3.36,3.56,5.8,2.61c10.16-3.97,20.04-8.59,29.48-14.07c1.6-0.93,2.86-2.62,1.68-4.73c-0.94-1.69-2.32-2.92-4.83-2.75
		C822.97,222.9,820.11,224.32,817.24,225.7z"/>
	<path class="st1" d="M262.11,478.46c-20.55-19.57-41.05-39.19-61.68-58.67c-11.18-10.56-22.58-20.87-33.89-31.3
		c-0.6,3.99-4.28,5.35-6.84,7.36c-24.47,19.11-31.5,57.77-15.06,84.02c21.54,34.39,61.17,43.93,95.28,22.3
		C249.1,496.34,255.88,487.46,262.11,478.46z"/>
	<path class="st7" d="M857.74,169.18c14.58,28.34,29.15,56.7,43.75,85.03c5.83,11.32,11.9,22.52,17.55,33.92
		c1.37,2.77,3.28,4.95,5.38,6.94c2.41,2.29,5.49,3.77,8.77,4.29c2.88,0.46,5.76,0.88,8.58,0.63c14.69-1.32,22.98-16.32,16.97-30.11
		c-5.38-12.34-13.12-23.56-17.35-36.46c-8.54-14.25-15.75-29.16-22.38-44.38c-2.85-1.47-3.64-4.43-4.96-6.98
		c-6.72-12.92-13.26-25.92-20.14-38.75c-6.07-11.33-18.31-15.09-29.85-9.53c-9.99,4.81-14.72,17.31-9.59,28.75
		C855.44,164.68,857,167,857.74,169.18z"/>
	<path class="st8" d="M440.34,826.8c47.62-0.03,95.25-0.05,142.87-0.08c-1.63-16.34-3.25-32.68-4.88-49.02
		c-41.02,12.53-81.9,8.93-122.74-1.02c-3.7,6.99-8.53,12.82-16.28,15.51c-2.82,0.98-3.42,2.71-3,5.5
		C437.75,807.37,439.01,817.09,440.34,826.8z"/>
	<path class="st7" d="M807.87,325.13c-0.48,0.57-0.82,0.97-1.31,1.55c-7.33,0.87-13.04,5.51-19.46,8.46
		c-8.75,4.02-17.25,8.61-25.87,12.91c-1.19-0.31-2.06-0.55-3.24-0.86c-7.03-10.7-12.15-22.43-17.92-33.8
		c-10.15-19.99-20.18-40.05-30.26-60.08c16.51-8.19,33.01-16.39,49.52-24.58c3.45,1.97,4.82,5.58,6.46,8.79
		c14.06,27.53,27.96,55.14,41.9,82.73C807.74,321.87,807.81,323.5,807.87,325.13z M760.97,282.18c-5.55-0.33-10.05,4.66-9.66,10.26
		c0.42,6.13,4.46,9.39,9.92,9.21c5.41-0.19,9.29-3.6,9.4-10.11C769.93,286.09,766.81,282.53,760.97,282.18z M774.53,309.36
		c-5.98,0.59-9.48,4.24-8.88,10.78c0.6,6.49,4.98,8.39,10.51,8.01c5.96-0.4,8.67-4.26,8.84-9.99
		C783.66,312.51,780.37,308.78,774.53,309.36z M746.52,273.74c6,0.06,9.51-3.18,9.72-9.24c0.22-6.32-3.9-9.44-9.46-9.59
		c-5.66-0.14-9.44,3.11-9.87,9.49C737.48,270.07,740.44,273.68,746.52,273.74z"/>
	<path class="st4" d="M476.45,435.44c-6.27,0.1-9.75-3.17-11.27-9.07c-1.72-6.63-6.96-8.22-12.39-3.76
		c-3.6,2.96-7.47,4.05-11.79,2.02c-4.22-1.98-6.26-5.36-6.41-10.12c-0.23-7.61-4.44-10.24-11.27-7.28c-4.21,1.82-8.27,1.77-12-1.12
		c-3.23-2.5-4.3-5.92-3.8-9.89c1.26-10.14-0.67-12.02-10.79-10.75c-1.55,0.19-3.16-0.18-4.75-0.28
		c-8.79,12.79-19.3,24.33-27.28,37.72c-2.03,3.41-4.28,6.66-5.05,10.65c25.37,12.21,52.45,19.09,79.74,25.18
		c4.85,1.08,10.07,0.56,15.12,0.78C464.59,454.02,472.97,446.96,476.45,435.44z"/>
	<path class="st9" d="M717.85,348.7c1.47-4.79,6.04-5.34,9.72-7.13c3.68-1.79,7.95-4.03,5.51-8.85c-2.26-4.47-6.98-2.58-9.75-0.54
		c-5.61,4.12-13.28,4.22-18.02,9.73c-4.87,2.09-9.95,3.82-14.57,6.36c-6.25,3.44-9.89,1.27-12.73-4.48
		c-3.65-7.38-7.57-14.62-11.22-21.99c-10.07-20.3-12.71-18.05,9.44-28.53c5.19-2.46,8.16-5.63,8.12-11.39
		c5.5-12.18,12.15-23.35,25.46-28.57c10.08,20.03,20.11,40.09,30.26,60.08c5.85,11.51,11.02,23.39,18.19,34.2
		C745,355.68,731.52,355.67,717.85,348.7z M697.43,326.39c6.89-3.25,13.9-6.28,20.71-9.7c2.53-1.27,5.2-3.04,3.28-6.83
		c-1.58-3.11-4.43-3.16-6.81-2.19c-7.07,2.88-13.97,6.2-20.9,9.42c-1.75,0.81-3.08,2.08-2.85,4.63
		C692.33,323.96,691.92,328.99,697.43,326.39z M684.62,296.19c-3.19,1.77-2.42,5.35-1.36,7.85c1.22,2.88,3.99,1.71,6.17,0.65
		c6.16-3.03,12.37-5.98,18.38-9.27c2.29-1.25,4.44-3.32,2.96-6.47c-1.24-2.65-3.81-2.42-7.44-2.27
		C697.75,289.48,691.06,292.61,684.62,296.19z"/>
	<path class="st1" d="M729.05,838.12c0-13.83-10.85-24.94-24.64-24.7c-13.1,0.23-23.41,12.78-23.49,24.33
		c-0.09,12.13,11.62,23.35,24.09,24.15C717.14,862.69,729.05,850.31,729.05,838.12z"/>
	<path class="st9" d="M919.03,189.06c6.63,15.21,13.84,30.13,22.38,44.38c14.34-6.27,20.18-19.5,14.51-32.9
		C950.09,186.76,935.02,182.07,919.03,189.06z"/>
	<path class="st0" d="M1014.32,232.18c4.51,0.09,8.35-0.86,9.36-5.76c1.08-5.26-3.23-7.19-6.95-8.08
		c-9.72-2.34-19.58-4.14-29.44-5.87c-4.35-0.76-7.66,2.23-8.55,5.71c-1.04,4.05,2.28,7.11,6.13,8
		C994.63,228.44,1004.5,230.21,1014.32,232.18z"/>
	<path class="st0" d="M947.68,158.2c0.52,4.44,2.75,6.86,6.49,7.71c3.75,0.85,6.44-1.11,7.55-4.38c3.41-10.02,6.54-20.13,9.62-30.26
		c1.23-4.04-1.06-6.6-4.4-8.37c-3.64-1.92-6.7-0.26-7.89,2.88C954.93,136.64,951.33,147.69,947.68,158.2z"/>
	<path class="st0" d="M977.97,179.46c-0.16,5.3,4.4,9.35,8.82,6.79c10.06-5.82,19.66-12.47,29.23-19.08
		c2.72-1.88,2.75-5.01,0.76-7.82c-2.16-3.05-5.7-4.14-8.46-2.51c-9.79,5.76-19.23,12.11-28.75,18.32
		C978.12,176.08,977.93,177.81,977.97,179.46z"/>
	<path class="st2" d="M346.15,117.85c-5.32,7.44-3.61,16.4-4.99,24.64c-0.82,4.87-1.86,6.65-7.03,6.96
		c-7.95,0.48-15.71,2.57-22.18,7.72c-1.64,1.3-3.38,2.68-4.46,4.41c-1.34,2.13-3.68,5.24-1.11,7.13c3.7,2.71,3.9-2.02,5.17-3.78
		c5.2-7.21,20.92-12.77,29.26-9.34c5.2,2.14,6.01,0.43,5.97-4.15c-0.08-9-0.66-18.04,1.7-26.89
		C349.21,121.79,347.12,120.01,346.15,117.85z"/>
	<path class="st10" d="M777.27,475.42c-15.09,37.29-30.17,74.58-45.26,111.87c-4.9,13.78-8,27.87-7.67,42.6
		c0.07,3.3-1.98,5.95-3.28,8.83c-6.2,13.72-14.97,26.01-21.93,39.31c16.45,2.97,32.9,5.87,49.33,8.93
		c23.89,4.45,42.51-7.72,46.55-31.67c7.6-45,14.6-90.1,21.85-135.16C797.65,510.55,786.35,493.97,777.27,475.42z"/>
	<path class="st8" d="M479.44,431.89c5.78-15.99,10.47-31.98-3.08-46.71c9.22-7.62,11.95-15.06,8.57-23.41
		c-3-7.42-11-11.93-19.3-11.16c-6.54,0.6-10.02,5.49-14.14,9.54c-6.88-5.59-9.6-14.02-6.43-21.83c3.04-7.49,8.89-10.78,17.08-10.48
		c2.69,0.1,7.59,2.31,7.7-2.69c0.21-9.85,4.7-4.76,7.82-2.48c20.26,14.84,56.55,10.95,73.34-7.12c4.87-5.24,7.98-11.7,14.86-16.57
		c0,15.8,0,31.6,0,47.41c-2.74,10.74-0.85,21.89-2.93,32.69c-7.02,12.11-15.27,22.97-28.99,28.19c-3.1,1.18-2.84,3.06-1.6,5.66
		c3.2,6.73,6.71,13.26,11.41,19.08c6.07,10.16,11.33,21.06,23.49,25.64c0.55,3.58-2.34,5.16-4.32,7.13
		c-22.72,22.55-65.16,26.44-94.14,8.54c-5.7-3.52-12.27-6.38-14.27-13.82c10.1-5.49,18.47-12.55,21.95-24.07
		C477.47,434.27,478.94,433.26,479.44,431.89z M514.96,358.46c-6.33-4.72-10.45-3.11-12.37,4.1c-2.55,1.47-3.67,3.39-3.15,6.57
		c2.52,15.64,22.67,24.91,36.12,16.62c3.92-2.42,5.52-5.7,4.76-10.05c-0.76-4.33-3.53-6.35-7.98-5.92
		C525.7,367.3,520.54,362.61,514.96,358.46z"/>
	<path class="st11" d="M398.66,776.02c1.34-0.32,2.86-0.66,3.63-1.45c-0.84-2.71-1.29-5.58-1.29-8.57c0-16.02,12.98-29,29-29
		s29,12.98,29,29c0,13.74-9.56,25.25-22.4,28.24c-0.46,0.91-0.51,2.04-0.3,3.44c1.44,9.69,2.7,19.41,4.03,29.12
		c1.15,17.11,3.23,34.07,8.76,51.72c-24.18-10.41-48.1-30.52-44.72-66.2c0.45-4.77-2.56-5.52-6.18-3.54
		c-12.13,6.63-25.17,10.06-38.66,12.9c-15.66,3.29-44.53,6.32-60.07-2.25C307,807,367.5,783.42,398.66,776.02z"/>
	<path class="st12" d="M457.22,761.42c0.05,2.6,0.09,5.2,0.14,7.8c5.83,0.32,11.2-1.3,15.42-5.18
		c24.4-22.43,45.12-47.69,58.92-78.12c1-2.2,4.05-5.27,0.94-6.95c-3.79-2.05-4.27,2.2-5.52,4.73
		c-13.89,28.04-32.08,52.86-55.45,73.78c-1.41,1.26-2.79,2.47-4.85,2.35c-0.08,0.19-0.12,0.41-0.24,0.56
		c-0.08,0.09-0.28,0.08-0.43,0.12c0.21-0.24,0.43-0.48,0.64-0.71c7.4-11.9,15.07-23.67,16.72-38.1c0.18-1.56,0.72-3.1,0.74-4.66
		c0.04-2.18-0.34-4.57-3.17-4.54c-2.31,0.02-2.86,2.12-2.93,4.02c-0.57,16.42-8.49,29.69-18.07,42.24
		C459.31,759.79,458.19,760.54,457.22,761.42z"/>
	<path class="st13" d="M476.36,385.18c9.22-7.62,11.95-15.06,8.57-23.41c-3-7.42-11-11.93-19.3-11.16
		c-6.54,0.6-10.02,5.49-14.14,9.54C444.78,374.94,458.44,391.99,476.36,385.18z"/>
	<path class="st13" d="M565.86,346.4c-2.74,10.74-0.85,21.89-2.93,32.69c10.53,4.17,18.8,2.55,24.18-4.74
		c5.17-7.01,4.92-16.07-0.86-22.68C580.7,345.32,573.55,344.66,565.86,346.4z"/>
	<path class="st8" d="M779.25,379.78c-1.28,1.97-2.28,4.22-3.89,5.88c-9.93,10.18-10.03,21.62-4.33,33.68
		c2.94,6.21,5.77,12.64,9.77,18.14c6.62,9.08,6.46,17.78,0.84,26.94c3.54,21.29,16.29,36.2,33.35,48.11
		c1.8,1.26,3.01,1.47,3.07-1.45c4.24-23.83,5.96-48.23,16.23-70.68c-4.94,2.5-9.94,4.91-14.8,7.56c-1.7,0.93-3.17,1.93-5.12,0.86
		c-3.92-2.15-8.93-18.58-6.87-22.55c6.29-12.12,3.39-21.72-8.84-27.97c-3.49-1.78-2.42-3.49-0.88-5.54
		c3.03-4.02,6.1-8.01,9.27-11.92c4.42-5.42,4.18-10.82-0.54-15.64c-3.96-4.05-11.6-2.7-16.2,2.26
		C786.56,371.51,784.06,376.68,779.25,379.78z"/>
	<path class="st9" d="M779.25,379.78c4.81-3.1,7.31-8.27,11.07-12.32c4.6-4.96,12.25-6.31,16.2-2.26
		c4.72,4.83,4.95,10.22,0.54,15.64c-3.18,3.9-6.24,7.9-9.27,11.92c-1.55,2.05-2.61,3.75,0.88,5.54
		c12.23,6.26,15.13,15.85,8.84,27.97c-2.06,3.97,2.95,20.39,6.87,22.55c1.95,1.07,3.41,0.07,5.12-0.86
		c4.86-2.65,9.86-5.06,14.8-7.56c4.97-2.63,9.91-5.9,15.2-8.51c5.62-2.77,9.4-6.2,8.51-8.89c-1-3-4.47-7.07-4.47-7.07
		s-13.14-19.88-15.88-31.74c-5.58,0.85-8.07-2.55-9.75-7.07c-3.95-10.65-12.98-19.3-12.46-31.7c-2.96-6.25-5.92-12.49-8.89-18.74
		c-7.33,0.87-13.04,5.51-19.45,8.46c-8.35,3.84-16.47,8.19-24.7,12.32C768.02,358.23,773.63,369,779.25,379.78z"/>
	<path class="st14" d="M815.44,345.41c-0.53,12.41,8.5,21.06,12.46,31.7c1.68,4.52,4.18,7.92,9.75,7.07
		c0.56,0.02,1.13,0.04,1.69,0.06c5.37-3.48,5.45-7.67,2.4-12.95c-3.6-6.21-6.59-12.76-9.88-19.15
		C826.48,341.71,826.02,341.53,815.44,345.41z"/>
	<path class="st15" d="M818,511c-0.06,2.93-1.21,2.78-3.01,1.53c-17.06-11.91-29.81-26.83-33.35-48.11
		c-0.64-2.42-2.4-4.59-5.52-2.69c-3.01,1.83,0.68,11.17,1.15,13.7c9.08,18.55,20.38,35.13,39.59,44.71
		C820.03,517.48,819.94,514.93,818,511z"/>
	<path class="st8" d="M839.34,384.24c-0.56-0.02-1.12-0.04-1.69-0.06c2.74,11.86,8.71,22.1,15.88,31.74
		c1.68-5.03-0.06-9.35-2.71-13.52C846.96,396.37,843.16,390.3,839.34,384.24z"/>
	<path class="st14" d="M717.85,348.7c1.47-4.79,6.04-5.34,9.72-7.13c3.68-1.79,7.95-4.03,5.51-8.85c-2.26-4.47-6.98-2.58-9.75-0.54
		c-5.61,4.12-13.28,4.22-18.02,9.73C709.13,344.84,712.82,347.99,717.85,348.7z"/>
	<path class="st7" d="M802.51,257.63c0.39,3.5,2.93,4.06,5.67,2.82c9.61-4.37,19.11-9,28.64-13.54c2.29-1.09,2.99-3.01,2.18-5.27
		c-0.82-2.3-2.81-3.56-5.03-2.44c-9.66,4.87-20,8.35-29.14,14.26C803.41,254.37,802.56,255.63,802.51,257.63z"/>
	<path class="st7" d="M812.17,275.99c0.03,3.36,1.86,4.82,4.12,4.11c11.12-3.5,21.28-9.19,31.42-14.82
		c1.78-0.99,1.64-3.25,0.72-5.03c-0.97-1.88-2.82-2.79-4.67-1.89c-10.01,4.83-19.96,9.79-29.85,14.87
		C812.95,273.73,812.56,275.35,812.17,275.99z"/>
	<path class="st7" d="M825.53,221.65c-2.57,1.26-5.42,2.68-8.3,4.05c-6.95,3.33-13.91,6.66-20.89,9.94
		c-2.14,1.01-3.69,2.46-2.94,4.93c0.87,2.85,3.36,3.56,5.8,2.61c10.16-3.97,20.04-8.59,29.48-14.07c1.6-0.93,2.86-2.62,1.68-4.73
		C829.42,222.71,828.05,221.48,825.53,221.65z"/>
	<path class="st16" d="M770.62,291.53c-0.69-5.44-3.81-9-9.66-9.35c-5.55-0.33-10.05,4.66-9.66,10.26c0.42,6.13,4.46,9.39,9.92,9.21
		C766.63,301.45,770.51,298.04,770.62,291.53z"/>
	<path class="st16" d="M784.99,318.16c-1.33-5.65-4.62-9.38-10.46-8.8c-5.98,0.59-9.48,4.24-8.88,10.78
		c0.6,6.49,4.98,8.39,10.51,8.01C782.12,327.75,784.82,323.9,784.99,318.16z"/>
	<path class="st16" d="M736.91,264.4c0.57,5.67,3.53,9.28,9.61,9.34c6,0.06,9.51-3.18,9.72-9.24c0.22-6.32-3.9-9.44-9.46-9.59
		C741.12,254.77,737.34,258.02,736.91,264.4z"/>
	<path class="st14" d="M690.86,321.72c1.47,2.24,1.06,7.27,6.57,4.67c6.89-3.25,13.9-6.28,20.71-9.7c2.53-1.27,5.2-3.04,3.28-6.83
		c-1.58-3.11-4.43-3.16-6.81-2.19c-7.07,2.88-13.97,6.2-20.9,9.42C691.96,317.9,690.63,319.17,690.86,321.72z"/>
	<path class="st14" d="M703.33,286.66c-5.59,2.81-12.27,5.95-18.71,9.52c-3.19,1.77-2.42,5.35-1.36,7.85
		c1.22,2.88,3.99,1.71,6.17,0.65c6.16-3.03,12.37-5.98,18.38-9.27c2.29-1.25,4.44-3.32,2.96-6.47
		C709.53,286.29,706.96,286.51,703.33,286.66z"/>
	<path class="st2" d="M502.59,362.56c-2.55,1.47-3.67,3.39-3.15,6.57c2.52,15.64,22.67,24.91,36.12,16.62
		c3.92-2.42,5.52-5.7,4.76-10.05c-0.76-4.33-3.53-6.35-7.98-5.92c-4.19,2.12-7.95,6.84-13.2,4
		C513.3,370.62,506.79,368.23,502.59,362.56z"/>
	<path class="st6" d="M502.59,362.56c4.19,5.67,10.71,8.07,16.55,11.23c5.24,2.84,9.01-1.89,13.2-4
		c-6.64-2.49-11.8-7.17-17.38-11.33C508.63,353.74,504.51,355.35,502.59,362.56z"/>
	<path class="st0" d="M466.8,759.8c-0.21,0.24-0.43,0.48-0.64,0.71c0.15-0.04,0.35-0.03,0.43-0.12c0.12-0.15,0.17-0.37,0.24-0.56
		C466.83,759.83,466.8,759.8,466.8,759.8z"/>
	<circle class="st1" cx="691.25" cy="162.25" r="28.25"/>
	<path class="st0" d="M323.83,51h0.33c3.22,0,5.83,2.61,5.83,5.83v23.33c0,3.22-2.61,5.83-5.83,5.83h-0.33
		c-3.22,0-5.83-2.61-5.83-5.83V56.83C318,53.61,320.61,51,323.83,51z"/>
	<path class="st0" d="M346.58,88.24l17.7-15.2c2.44-2.1,6.13-1.82,8.23,0.62l0.22,0.25c2.1,2.44,1.82,6.13-0.62,8.23l-17.7,15.2
		c-2.44,2.1-6.13,1.82-8.23-0.62l-0.22-0.25C343.86,94.02,344.14,90.34,346.58,88.24z"/>
	<path class="st0" d="M276.99,69.01l0.25-0.23c2.37-2.18,6.06-2.03,8.24,0.34l15.8,17.17c2.18,2.37,2.03,6.06-0.34,8.24l-0.25,0.23
		c-2.37,2.18-6.06,2.03-8.24-0.34l-15.8-17.17C274.46,74.88,274.62,71.19,276.99,69.01z"/>
	<path class="st1" d="M182.07,1040.72c0.92-13.25,11.95-23.72,25.43-23.72h547c12.25,0,22.47,8.63,24.93,20.15
		c0.51,1.87,0.78,3.83,0.78,5.88c-0.02,8.23-2.86,14.33-8.22,18.03c-4.57,4.31-10.72,6.95-17.49,6.95h-547
		c-12.23,0-22.44-8.6-24.92-20.09C181.91,1045.6,181.68,1043.21,182.07,1040.72z"/>
</g>
</svg>
