<?xml version="1.0" encoding="utf-8"?>
<!-- Generator: Adobe Illustrator 26.2.1, SVG Export Plug-In . SVG Version: 6.00 Build 0)  -->
<svg version="1.1" id="Camada_1" xmlns="http://www.w3.org/2000/svg" xmlns:xlink="http://www.w3.org/1999/xlink" x="0px" y="0px"
	 viewBox="0 0 64 64" style="enable-background:new 0 0 64 64;" xml:space="preserve">
<g>
	<path d="M38.71,8.72c-1.93,0.48-3.21,2.26-3.13,4.18c-3.74,5.11-8.87,8.68-15.25,10.62L7.63,26.69c-2.87,0.72-4.62,3.63-3.9,6.5
		l1.11,4.45c0.72,2.87,3.63,4.62,6.5,3.9l0.99-0.25l3.03,12.15c0.62,2.5,3.17,4.02,5.66,3.4s4.02-3.17,3.4-5.66l-1.52-6.1l1.13-0.28
		c2.59-0.65,4.17-3.28,3.53-5.87l-0.27-1.1c4.82-0.48,9.92,0.45,15.22,2.77c0.84,1.71,2.79,2.67,4.72,2.19
		c2.21-0.55,3.56-2.8,3.01-5.02l-6.5-26.03C43.17,9.52,40.92,8.17,38.71,8.72z M36.21,15.77l5.51,22.04
		c-5.94-2.31-11.68-2.94-17.09-1.89l-2.64-10.56C27.74,23.43,32.51,20.21,36.21,15.77z M10.8,39.34c-1.66,0.41-3.34-0.6-3.76-2.25
		l-1.11-4.45c-0.41-1.66,0.6-3.34,2.25-3.76l11.63-2.9l2.61,10.46l-1.58,0.39l-9.06,2.26L10.8,39.34z M22.24,51.72
		c0.32,1.29-0.46,2.6-1.75,2.92c-1.29,0.32-2.6-0.46-2.92-1.75l-3.03-12.15l4.67-1.17L22.24,51.72z M26.19,39.26
		c0.46,1.84-0.66,3.7-2.5,4.16l-1.13,0.28l-1.17-4.67l2.66-0.66c0.6-0.14,1.21-0.26,1.82-0.36L26.19,39.26z M48.03,38.32
		c0.25,1-0.36,2.02-1.36,2.27c-1,0.25-2.02-0.36-2.27-1.36l-6.5-26.03c-0.25-1,0.36-2.02,1.36-2.27c1-0.25,2.02,0.36,2.27,1.36
		L48.03,38.32z"/>
	<path d="M14.5,31.31l-2.63,0.66c-1.06,0.26-1.72,1.26-1.48,2.23c0.24,0.97,1.29,1.53,2.35,1.27l2.63-0.66
		c1.06-0.26,1.72-1.26,1.48-2.23C16.61,31.62,15.55,31.05,14.5,31.31z"/>
	<path d="M57.28,20.62l-3.16,0.79c-1.27,0.32-2.11,1.36-1.87,2.32c0.24,0.97,1.47,1.49,2.74,1.17l3.16-0.79
		c1.27-0.32,2.11-1.36,1.87-2.32C59.77,20.83,58.55,20.31,57.28,20.62z"/>
	<path d="M48.1,17.76c0.85,0.51,2.09,0.02,2.77-1.11l1.68-2.79c0.67-1.12,0.53-2.45-0.32-2.96s-2.09-0.02-2.77,1.11l-1.68,2.79
		C47.11,15.92,47.25,17.25,48.1,17.76L48.1,17.76z"/>
	<path d="M53.92,30.57c-1.12-0.67-2.45-0.53-2.96,0.32c-0.51,0.85-0.02,2.09,1.11,2.77l2.79,1.68c1.12,0.67,2.45,0.53,2.96-0.32
		c0.51-0.85,0.02-2.09-1.11-2.77L53.92,30.57z"/>
</g>
</svg>
